<?xml version="1.0" encoding="utf-8"?>
<!-- Generator: Adobe Illustrator 21.1.0, SVG Export Plug-In . SVG Version: 6.00 Build 0)  -->
<svg version="1.1" id="レイヤー_1" xmlns="http://www.w3.org/2000/svg" xmlns:xlink="http://www.w3.org/1999/xlink" x="0px"
	 y="0px" viewBox="0 0 300.7 109" style="enable-background:new 0 0 300.7 109;" xml:space="preserve">
<style type="text/css">
	.st0{enable-background:new    ;}
</style>
<g class="st0">
	<path d="M17.4,18.9c0-5.1-3.4-8.3-7.7-8.3c-4.2,0-8.1,2.4-8.3,8.6V32H0V9.6h1.4v4.9c1.2-4,4.9-5.4,8.3-5.4c4.2,0,7.5,2.3,8.6,6.5
		c1.1-5.2,5.5-6.5,8.9-6.5c5.2,0,9.2,3.6,9.2,9.7V32H35V18.9c0-5.1-3.4-8.3-7.7-8.3c-4.2,0-8.1,2.4-8.3,8.6V32h-1.4V18.9H17.4z"/>
	<path d="M64.6,26.6c-2,3.6-5.8,6-10.3,6c-6.4,0-11.7-5.2-11.7-11.7c0-6.4,5.2-11.7,11.7-11.7c4.5,0,8.3,2.4,10.3,6V9.6H66V32h-1.4
		V26.6z M54.4,31.1c5.5,0,10.1-4.4,10.3-9.8v-0.4c0-5.6-4.6-10.2-10.3-10.2c-5.6,0-10.2,4.6-10.2,10.2
		C44.1,26.6,48.8,31.1,54.4,31.1z"/>
	<path d="M75.2,0c0.9,0,1.5,0.6,1.5,1.4S76,2.7,75.2,2.7s-1.5-0.6-1.5-1.3C73.7,0.6,74.3,0,75.2,0z M74.4,9.6h1.4V32h-1.4V9.6z"/>
	<path d="M101.7,18.9c0-5.1-3.4-8.3-7.7-8.3c-4.2,0-8.1,2.4-8.3,8.6V32h-1.4V9.6h1.4v4.9c1.2-4,4.9-5.4,8.3-5.4
		c4.2,0,7.5,2.3,8.6,6.5c1.1-5.2,5.5-6.5,8.9-6.5c5.2,0,9.2,3.6,9.2,9.7V32h-1.4V18.9c0-5.1-3.4-8.3-7.7-8.3c-4.2,0-8.1,2.4-8.3,8.6
		V32h-1.4V18.9H101.7z"/>
	<path d="M148.9,26.6c-2,3.6-5.8,6-10.3,6c-6.4,0-11.7-5.2-11.7-11.7c0-6.4,5.2-11.7,11.7-11.7c4.5,0,8.3,2.4,10.3,6V9.6h1.4V32
		h-1.4V26.6z M138.7,31.1c5.5,0,10.1-4.4,10.3-9.8v-0.4c0-5.6-4.6-10.2-10.3-10.2c-5.6,0-10.2,4.6-10.2,10.2
		C128.4,26.6,133,31.1,138.7,31.1z"/>
	<path d="M159.7,29.9c0.9,0,1.5,0.6,1.5,1.4c0,0.8-0.7,1.3-1.5,1.3s-1.5-0.6-1.5-1.3C158.2,30.5,158.9,29.9,159.7,29.9z"/>
	<path d="M186.6,18.9c0-5.1-3.4-8.3-7.7-8.3c-4.2,0-8.1,2.4-8.3,8.6V32h-1.4V9.6h1.4v4.9c1.2-4,4.9-5.4,8.3-5.4
		c4.2,0,7.5,2.3,8.6,6.5c1.1-5.2,5.5-6.5,8.9-6.5c5.2,0,9.2,3.6,9.2,9.7V32h-1.4V18.9c0-5.1-3.4-8.3-7.7-8.3c-4.2,0-8.1,2.4-8.3,8.6
		V32h-1.4V18.9H186.6z"/>
	<path d="M234.2,21.5h-20.8c0.3,5.9,4.6,9.7,9.8,9.7c3.6,0,6.6-1.7,8.4-4.6l1.2,0.8c-2,3.3-5.6,5.2-9.6,5.2
		c-6.3,0-11.3-4.7-11.3-11.8s5-11.6,11.3-11.6s10.9,4.6,10.9,11.6L234.2,21.5C234.1,21.5,234.2,21.5,234.2,21.5z M213.4,20.1h19.3
		c-0.3-5.8-4.2-9.5-9.5-9.5C218,10.6,213.7,14.4,213.4,20.1z"/>
</g>
<g>
	<path d="M1.7,54.9h1.9c0.4,0,0.7,0,1,0.1s0.6,0.2,0.8,0.4c0.2,0.2,0.4,0.4,0.5,0.6c0.1,0.3,0.2,0.6,0.2,0.9c0,1-0.3,1.7-0.9,2.2
		C4.7,59.6,4,59.9,3,59.9H1.5l-0.5,3.2H0.4L1.7,54.9z M3.1,59.4c0.8,0,1.4-0.2,1.8-0.6c0.5-0.4,0.7-1,0.7-1.8c0-0.5-0.2-0.9-0.5-1.2
		c-0.3-0.3-0.8-0.4-1.5-0.4H2.2l-0.6,4H3.1z"/>
	<path d="M11.6,63.4c-0.6,0-1.1-0.1-1.6-0.3c-0.5-0.2-0.9-0.5-1.2-0.9c-0.3-0.4-0.6-0.8-0.8-1.3c-0.2-0.5-0.3-1-0.3-1.5
		c0-0.6,0.1-1.2,0.3-1.7c0.2-0.6,0.5-1.1,0.9-1.5c0.4-0.5,0.9-0.8,1.4-1.1c0.6-0.3,1.2-0.4,2-0.4c0.6,0,1.1,0.1,1.6,0.3
		s0.9,0.5,1.2,0.9c0.3,0.4,0.6,0.8,0.8,1.3c0.2,0.5,0.3,1,0.3,1.5c0,0.6-0.1,1.2-0.3,1.7c-0.2,0.6-0.5,1.1-0.9,1.5
		c-0.4,0.5-0.9,0.8-1.4,1.1C13,63.2,12.4,63.4,11.6,63.4z M11.6,62.9c0.7,0,1.2-0.1,1.7-0.4s0.9-0.6,1.2-1c0.3-0.4,0.6-0.9,0.8-1.4
		c0.2-0.5,0.3-1,0.3-1.6c0-0.5-0.1-0.9-0.2-1.4c-0.2-0.4-0.4-0.8-0.7-1.1c-0.3-0.3-0.6-0.6-1-0.8c-0.4-0.2-0.9-0.3-1.4-0.3
		c-0.7,0-1.3,0.1-1.8,0.4c-0.5,0.2-0.9,0.6-1.3,1c-0.3,0.4-0.6,0.9-0.7,1.4c-0.2,0.5-0.2,1-0.2,1.6c0,0.5,0.1,0.9,0.2,1.4
		c0.1,0.4,0.4,0.8,0.7,1.1c0.3,0.3,0.6,0.6,1.1,0.7C10.6,62.8,11.1,62.9,11.6,62.9z"/>
	<path d="M18.2,63.1h-0.5l1.3-8.2h2.3c0.7,0,1.3,0.2,1.6,0.5s0.6,0.8,0.6,1.6c0,0.3-0.1,0.6-0.2,0.9c-0.1,0.3-0.3,0.5-0.5,0.8
		c-0.2,0.2-0.5,0.4-0.8,0.6c-0.3,0.1-0.7,0.2-1.1,0.3l2.3,3.7h-0.6l-2.2-3.6h-1.6L18.2,63.1z M20.5,59c0.3,0,0.7,0,0.9-0.1
		c0.3-0.1,0.6-0.2,0.8-0.4c0.2-0.2,0.4-0.4,0.5-0.6c0.1-0.3,0.2-0.6,0.2-0.9c0-0.5-0.1-0.9-0.4-1.2c-0.3-0.3-0.7-0.4-1.3-0.4h-1.8
		L18.8,59H20.5z"/>
	<path d="M27.7,55.4h-2.3l0.1-0.5h5.1l-0.1,0.5h-2.3L27,63.1h-0.5L27.7,55.4z"/>
	<path d="M36.6,55.4H33l-0.5,3.4H36l-0.1,0.5h-3.6l-0.6,3.9h-0.5l1.3-8.2h4.2L36.6,55.4z"/>
	<path d="M41.8,63.4c-0.6,0-1.1-0.1-1.6-0.3c-0.5-0.2-0.9-0.5-1.2-0.9c-0.3-0.4-0.6-0.8-0.8-1.3c-0.2-0.5-0.3-1-0.3-1.5
		c0-0.6,0.1-1.2,0.3-1.7c0.2-0.6,0.5-1.1,0.9-1.5c0.4-0.5,0.9-0.8,1.4-1.1c0.6-0.3,1.2-0.4,2-0.4c0.6,0,1.1,0.1,1.6,0.3
		s0.9,0.5,1.2,0.9c0.3,0.4,0.6,0.8,0.8,1.3c0.2,0.5,0.3,1,0.3,1.5c0,0.6-0.1,1.2-0.3,1.7c-0.2,0.6-0.5,1.1-0.9,1.5
		c-0.4,0.5-0.9,0.8-1.4,1.1C43.2,63.2,42.6,63.4,41.8,63.4z M41.8,62.9c0.7,0,1.2-0.1,1.7-0.4s0.9-0.6,1.2-1
		c0.3-0.4,0.6-0.9,0.8-1.4c0.2-0.5,0.3-1,0.3-1.6c0-0.5-0.1-0.9-0.2-1.4c-0.2-0.4-0.4-0.8-0.7-1.1c-0.3-0.3-0.6-0.6-1-0.8
		c-0.4-0.2-0.9-0.3-1.4-0.3c-0.7,0-1.3,0.1-1.8,0.4c-0.5,0.2-0.9,0.6-1.3,1c-0.3,0.4-0.6,0.9-0.7,1.4c-0.2,0.5-0.2,1-0.2,1.6
		c0,0.5,0.1,0.9,0.2,1.4c0.1,0.4,0.4,0.8,0.7,1.1c0.3,0.3,0.6,0.6,1.1,0.7C40.8,62.8,41.3,62.9,41.8,62.9z"/>
	<path d="M49.2,54.9h0.5l-1.2,7.7h3.6L52,63.1h-4.1L49.2,54.9z"/>
	<path d="M55.3,54.9h0.5l-1.3,8.2H54L55.3,54.9z"/>
	<path d="M61.2,63.4c-0.6,0-1.1-0.1-1.6-0.3c-0.5-0.2-0.9-0.5-1.2-0.9c-0.3-0.4-0.6-0.8-0.8-1.3c-0.2-0.5-0.3-1-0.3-1.5
		c0-0.6,0.1-1.2,0.3-1.7c0.2-0.6,0.5-1.1,0.9-1.5c0.4-0.5,0.9-0.8,1.4-1.1c0.6-0.3,1.2-0.4,2-0.4c0.6,0,1.1,0.1,1.6,0.3
		s0.9,0.5,1.2,0.9c0.3,0.4,0.6,0.8,0.8,1.3c0.2,0.5,0.3,1,0.3,1.5c0,0.6-0.1,1.2-0.3,1.7c-0.2,0.6-0.5,1.1-0.9,1.5
		c-0.4,0.5-0.9,0.8-1.4,1.1C62.6,63.2,62,63.4,61.2,63.4z M61.2,62.9c0.7,0,1.2-0.1,1.7-0.4s0.9-0.6,1.2-1c0.3-0.4,0.6-0.9,0.8-1.4
		c0.2-0.5,0.3-1,0.3-1.6c0-0.5-0.1-0.9-0.2-1.4c-0.2-0.4-0.4-0.8-0.7-1.1c-0.3-0.3-0.6-0.6-1-0.8c-0.4-0.2-0.9-0.3-1.4-0.3
		c-0.7,0-1.3,0.1-1.8,0.4c-0.5,0.2-0.9,0.6-1.3,1c-0.3,0.4-0.6,0.9-0.7,1.4c-0.2,0.5-0.2,1-0.2,1.6c0,0.5,0.1,0.9,0.2,1.4
		c0.1,0.4,0.4,0.8,0.7,1.1c0.3,0.3,0.6,0.6,1.1,0.7C60.2,62.8,60.7,62.9,61.2,62.9z"/>
	<path d="M75,63.4c-0.6,0-1.1-0.1-1.6-0.3c-0.5-0.2-0.9-0.5-1.2-0.9c-0.3-0.4-0.6-0.8-0.8-1.3c-0.2-0.5-0.3-1-0.3-1.5
		c0-0.6,0.1-1.2,0.3-1.7c0.2-0.6,0.5-1.1,0.9-1.5c0.4-0.5,0.9-0.8,1.4-1.1c0.6-0.3,1.2-0.4,2-0.4c0.6,0,1.1,0.1,1.6,0.3
		s0.9,0.5,1.2,0.9c0.3,0.4,0.6,0.8,0.8,1.3c0.2,0.5,0.3,1,0.3,1.5c0,0.6-0.1,1.2-0.3,1.7c-0.2,0.6-0.5,1.1-0.9,1.5
		c-0.4,0.5-0.9,0.8-1.4,1.1C76.3,63.2,75.7,63.4,75,63.4z M75,62.9c0.7,0,1.2-0.1,1.7-0.4s0.9-0.6,1.2-1c0.3-0.4,0.6-0.9,0.8-1.4
		c0.2-0.5,0.3-1,0.3-1.6c0-0.5-0.1-0.9-0.2-1.4s-0.4-0.8-0.7-1.1c-0.3-0.3-0.6-0.6-1-0.8c-0.4-0.2-0.9-0.3-1.4-0.3
		c-0.7,0-1.3,0.1-1.8,0.4c-0.5,0.2-0.9,0.6-1.3,1c-0.3,0.4-0.6,0.9-0.7,1.4c-0.2,0.5-0.2,1-0.2,1.6c0,0.5,0.1,0.9,0.2,1.4
		c0.1,0.4,0.4,0.8,0.7,1.1c0.3,0.3,0.6,0.6,1.1,0.7C74,62.8,74.4,62.9,75,62.9z"/>
	<path d="M86.4,55.4h-3.7l-0.5,3.4h3.6l-0.1,0.5h-3.6l-0.6,3.9H81l1.3-8.2h4.2L86.4,55.4z"/>
	<path d="M99.2,63.1h-0.5l0.2-4.8c0-0.4,0-0.8,0.1-1.2c0-0.4,0.1-0.8,0.1-1.2H99c-0.2,0.4-0.4,0.7-0.6,1.2c-0.2,0.4-0.4,0.8-0.6,1.2
		l-2.6,4.8h-0.4l-1.1-5c0-0.2-0.1-0.4-0.1-0.6s-0.1-0.4-0.1-0.6c0-0.2-0.1-0.4-0.1-0.6s-0.1-0.3-0.1-0.4h-0.1c0,0.2-0.1,0.3-0.1,0.4
		c0,0.1-0.1,0.3-0.1,0.5s-0.1,0.3-0.1,0.5c0,0.2-0.1,0.4-0.2,0.7l-1.4,5h-0.5l2.3-8.2h0.4l1.2,5.8c0.1,0.3,0.1,0.5,0.2,0.9
		c0.1,0.3,0.1,0.6,0.2,0.9h0.1c0.1-0.1,0.1-0.3,0.2-0.4c0.1-0.1,0.2-0.3,0.2-0.4c0.1-0.1,0.2-0.3,0.2-0.4c0.1-0.1,0.2-0.3,0.2-0.4
		l3.2-5.8h0.4L99.2,63.1z"/>
	<path d="M105.4,54.9h0.5l2,8.2h-0.5l-0.6-2.3h-4.2l-1.3,2.3h-0.6L105.4,54.9z M106,57.5c0-0.1-0.1-0.3-0.1-0.4s-0.1-0.3-0.1-0.5
		c0-0.2-0.1-0.4-0.1-0.5s-0.1-0.3-0.1-0.5h0c-0.1,0.1-0.2,0.3-0.3,0.5c-0.1,0.2-0.2,0.4-0.3,0.6c-0.1,0.2-0.2,0.4-0.3,0.6
		c-0.1,0.2-0.2,0.3-0.3,0.5l-1.5,2.7h3.8L106,57.5z"/>
	<path d="M111.1,54.9h0.5l-1.3,8.2h-0.5L111.1,54.9z"/>
	<path d="M117.9,54.9h0.5l-1.3,8.2h-0.5L117.9,54.9z"/>
	<path d="M127.8,63.1h-0.5l0.2-4.8c0-0.4,0-0.8,0.1-1.2c0-0.4,0.1-0.8,0.1-1.2h-0.1c-0.2,0.4-0.4,0.7-0.6,1.2
		c-0.2,0.4-0.4,0.8-0.6,1.2l-2.6,4.8h-0.4l-1.1-5c0-0.2-0.1-0.4-0.1-0.6s-0.1-0.4-0.1-0.6c0-0.2-0.1-0.4-0.1-0.6s-0.1-0.3-0.1-0.4
		h-0.1c0,0.2-0.1,0.3-0.1,0.4c0,0.1-0.1,0.3-0.1,0.5s-0.1,0.3-0.1,0.5c0,0.2-0.1,0.4-0.2,0.7l-1.4,5h-0.5l2.3-8.2h0.4l1.2,5.8
		c0.1,0.3,0.1,0.5,0.2,0.9c0.1,0.3,0.1,0.6,0.2,0.9h0.1c0.1-0.1,0.1-0.3,0.2-0.4c0.1-0.1,0.2-0.3,0.2-0.4c0.1-0.1,0.2-0.3,0.2-0.4
		c0.1-0.1,0.2-0.3,0.2-0.4l3.2-5.8h0.4L127.8,63.1z"/>
	<path d="M134,54.9h0.5l2,8.2H136l-0.6-2.3h-4.2l-1.3,2.3h-0.6L134,54.9z M134.7,57.5c0-0.1-0.1-0.3-0.1-0.4s-0.1-0.3-0.1-0.5
		c0-0.2-0.1-0.4-0.1-0.5s-0.1-0.3-0.1-0.5h0c-0.1,0.1-0.2,0.3-0.3,0.5c-0.1,0.2-0.2,0.4-0.3,0.6c-0.1,0.2-0.2,0.4-0.3,0.6
		c-0.1,0.2-0.2,0.3-0.3,0.5l-1.5,2.7h3.8L134.7,57.5z"/>
	<path d="M140.6,58.9l-1.1,1l-0.5,3.3h-0.5l1.3-8.2h0.5l-0.7,4.3l5-4.3h0.7l-4.3,3.7l3.4,4.5h-0.6L140.6,58.9z"/>
	<path d="M147.4,54.9h0.5l-1.3,8.2h-0.5L147.4,54.9z"/>
	<path d="M152.1,55.4h-2.3l0.1-0.5h5.1l-0.1,0.5h-2.3l-1.2,7.7h-0.5L152.1,55.4z"/>
	<path d="M159,54.9h0.5l2,8.2H161l-0.6-2.3h-4.2l-1.3,2.3h-0.6L159,54.9z M159.6,57.5c0-0.1-0.1-0.3-0.1-0.4c0-0.2-0.1-0.3-0.1-0.5
		c0-0.2-0.1-0.4-0.1-0.5c0-0.2-0.1-0.3-0.1-0.5h0c-0.1,0.1-0.2,0.3-0.3,0.5c-0.1,0.2-0.2,0.4-0.3,0.6c-0.1,0.2-0.2,0.4-0.3,0.6
		s-0.2,0.3-0.3,0.5l-1.5,2.7h3.8L159.6,57.5z"/>
</g>
<g>
	<path d="M4.3,70.4h0.5l2,8.2H6.3l-0.6-2.3H1.5l-1.3,2.3h-0.6L4.3,70.4z M4.9,73c0-0.1-0.1-0.3-0.1-0.4s-0.1-0.3-0.1-0.5
		c0-0.2-0.1-0.4-0.1-0.5s-0.1-0.3-0.1-0.5h0c-0.1,0.1-0.2,0.3-0.3,0.5c-0.1,0.2-0.2,0.4-0.3,0.6c-0.1,0.2-0.2,0.4-0.3,0.6
		S3.4,73,3.3,73.1l-1.5,2.7h3.8L4.9,73z"/>
	<path d="M9.3,78.6H8.7l1.3-8.2h2.3c0.7,0,1.3,0.2,1.6,0.5s0.6,0.8,0.6,1.6c0,0.3-0.1,0.6-0.2,0.9c-0.1,0.3-0.3,0.5-0.5,0.8
		c-0.2,0.2-0.5,0.4-0.8,0.6c-0.3,0.1-0.7,0.2-1.1,0.3l2.3,3.7h-0.6L11.5,75H9.9L9.3,78.6z M11.6,74.5c0.3,0,0.7,0,0.9-0.1
		c0.3-0.1,0.6-0.2,0.8-0.4c0.2-0.2,0.4-0.4,0.5-0.6c0.1-0.3,0.2-0.6,0.2-0.9c0-0.5-0.1-0.9-0.4-1.2c-0.3-0.3-0.7-0.4-1.3-0.4h-1.8
		l-0.6,3.6H11.6z"/>
	<path d="M18.8,70.9h-2.3l0.1-0.5h5.1l-0.1,0.5h-2.3l-1.2,7.7h-0.5L18.8,70.9z"/>
	<path d="M29.4,70.4c0.6,0,1.2,0.1,1.6,0.3c0.5,0.2,0.9,0.5,1.2,0.8c0.3,0.3,0.6,0.7,0.7,1.2c0.2,0.4,0.2,0.9,0.2,1.4
		c0,0.7-0.1,1.3-0.3,1.8c-0.2,0.6-0.5,1-0.9,1.4c-0.4,0.4-0.9,0.7-1.5,1c-0.6,0.2-1.3,0.3-2,0.3h-2.5l1.3-8.2H29.4z M28.5,78.2
		c0.7,0,1.3-0.1,1.8-0.3c0.5-0.2,0.9-0.5,1.3-0.8s0.6-0.8,0.8-1.3s0.3-1.1,0.3-1.7c0-0.4-0.1-0.8-0.2-1.2c-0.1-0.4-0.3-0.7-0.6-1
		s-0.6-0.5-1-0.7c-0.4-0.2-0.9-0.3-1.4-0.3h-1.7l-1.2,7.3H28.5z"/>
	<path d="M36,70.4h0.5l-1.3,8.2h-0.5L36,70.4z"/>
	<path d="M38.4,78.6h-0.5l1.3-8.2h2.3c0.7,0,1.3,0.2,1.6,0.5s0.6,0.8,0.6,1.6c0,0.3-0.1,0.6-0.2,0.9c-0.1,0.3-0.3,0.5-0.5,0.8
		c-0.2,0.2-0.5,0.4-0.8,0.6c-0.3,0.1-0.7,0.2-1.1,0.3l2.3,3.7h-0.6L40.5,75h-1.6L38.4,78.6z M40.7,74.5c0.3,0,0.7,0,0.9-0.1
		c0.3-0.1,0.6-0.2,0.8-0.4c0.2-0.2,0.4-0.4,0.5-0.6c0.1-0.3,0.2-0.6,0.2-0.9c0-0.5-0.1-0.9-0.4-1.2c-0.3-0.3-0.7-0.4-1.3-0.4h-1.8
		L39,74.5H40.7z"/>
	<path d="M50.6,70.9H47l-0.5,3.2H50l-0.1,0.5h-3.5l-0.6,3.5h3.7l-0.1,0.5h-4.3l1.3-8.2h4.1L50.6,70.9z"/>
	<path d="M56.8,70.2c0.9,0,1.7,0.2,2.3,0.6s1,1,1.2,1.7h-0.6c-0.2-0.6-0.5-1-1-1.4c-0.5-0.3-1.2-0.5-2-0.5c-0.6,0-1.2,0.1-1.7,0.3
		c-0.5,0.2-0.9,0.5-1.3,0.9s-0.6,0.9-0.8,1.4c-0.2,0.5-0.3,1.1-0.3,1.8c0,0.5,0.1,0.9,0.2,1.4c0.2,0.4,0.4,0.8,0.7,1.1
		c0.3,0.3,0.6,0.5,1,0.7c0.4,0.2,0.8,0.2,1.3,0.2c0.8,0,1.5-0.2,2-0.5s1-0.8,1.3-1.4h0.6c-0.4,0.8-0.9,1.4-1.5,1.8
		c-0.6,0.4-1.4,0.6-2.4,0.6c-0.6,0-1.1-0.1-1.6-0.3s-0.9-0.5-1.2-0.8c-0.3-0.3-0.6-0.8-0.7-1.2s-0.2-0.9-0.2-1.4
		c0-0.6,0.1-1.2,0.3-1.8s0.5-1.1,0.9-1.6c0.4-0.5,0.9-0.8,1.4-1.1C55.3,70.3,56,70.2,56.8,70.2z"/>
	<path d="M64.3,70.9h-2.3l0.1-0.5h5.1l-0.1,0.5h-2.3l-1.2,7.7h-0.5L64.3,70.9z"/>
	<path d="M69.2,70.4h0.5l-1.3,8.2h-0.5L69.2,70.4z"/>
	<path d="M75.1,78.9c-0.6,0-1.1-0.1-1.6-0.3c-0.5-0.2-0.9-0.5-1.2-0.9c-0.3-0.4-0.6-0.8-0.8-1.3c-0.2-0.5-0.3-1-0.3-1.5
		c0-0.6,0.1-1.2,0.3-1.7c0.2-0.6,0.5-1.1,0.9-1.5c0.4-0.5,0.9-0.8,1.4-1.1c0.6-0.3,1.2-0.4,2-0.4c0.6,0,1.1,0.1,1.6,0.3
		s0.9,0.5,1.2,0.9c0.3,0.4,0.6,0.8,0.8,1.3c0.2,0.5,0.3,1,0.3,1.5c0,0.6-0.1,1.2-0.3,1.7c-0.2,0.6-0.5,1.1-0.9,1.5
		c-0.4,0.5-0.9,0.8-1.4,1.1C76.5,78.7,75.9,78.9,75.1,78.9z M75.1,78.4c0.7,0,1.2-0.1,1.7-0.4s0.9-0.6,1.2-1
		c0.3-0.4,0.6-0.9,0.8-1.4c0.2-0.5,0.3-1,0.3-1.6c0-0.5-0.1-0.9-0.2-1.4s-0.4-0.8-0.7-1.1c-0.3-0.3-0.6-0.6-1-0.8
		c-0.4-0.2-0.9-0.3-1.4-0.3c-0.7,0-1.3,0.1-1.8,0.4c-0.5,0.2-0.9,0.6-1.3,1c-0.3,0.4-0.6,0.9-0.7,1.4c-0.2,0.5-0.2,1-0.2,1.6
		c0,0.5,0.1,0.9,0.2,1.4c0.1,0.4,0.4,0.8,0.7,1.1c0.3,0.3,0.6,0.6,1.1,0.7C74.1,78.3,74.6,78.4,75.1,78.4z"/>
	<path d="M81.2,78.6l1.3-8.2h0.4l2.4,4.5c0.2,0.4,0.5,0.9,0.7,1.4c0.3,0.5,0.5,1,0.8,1.4h0c0-0.1,0-0.3,0.1-0.4c0-0.2,0-0.3,0.1-0.5
		c0-0.2,0-0.3,0.1-0.5c0-0.2,0-0.3,0.1-0.4l0.9-5.5h0.5l-1.3,8.2h-0.5l-2.5-4.7c-0.1-0.2-0.2-0.5-0.4-0.7s-0.3-0.5-0.4-0.8
		s-0.2-0.5-0.3-0.7c-0.1-0.2-0.2-0.4-0.3-0.5h0c0,0.1,0,0.3-0.1,0.4c0,0.2,0,0.4-0.1,0.5c0,0.2,0,0.4-0.1,0.5s0,0.3-0.1,0.4
		l-0.8,5.4H81.2z"/>
	<path d="M89.9,77.7h0.8l-0.1,0.4c-0.1,0.5-0.2,0.9-0.3,1.2c-0.2,0.3-0.3,0.6-0.5,0.9h-0.4c0.2-0.2,0.3-0.5,0.4-0.8
		c0.1-0.3,0.2-0.6,0.3-0.9h-0.4L89.9,77.7z"/>
	<path d="M97.5,73c0-0.3,0-0.5-0.1-0.9c0-0.3,0-0.6,0-0.9h0c-0.1,0.3-0.2,0.6-0.3,0.9s-0.2,0.6-0.3,0.8l-2.3,5.7H94l-0.9-8.2h0.5
		l0.6,5.8c0,0.2,0,0.5,0.1,0.8c0,0.3,0,0.6,0.1,0.8h0c0.1-0.3,0.2-0.5,0.3-0.9c0.1-0.3,0.2-0.6,0.3-0.8l2.3-5.7h0.5l0.5,5.7
		c0,0.3,0.1,0.6,0.1,0.9s0,0.5,0,0.7h0c0-0.1,0.1-0.2,0.1-0.4c0.1-0.1,0.1-0.3,0.2-0.5c0.1-0.2,0.1-0.3,0.2-0.4
		c0.1-0.1,0.1-0.2,0.1-0.3l2.5-5.8h0.5l-3.6,8.2H98L97.5,73z"/>
	<path d="M108,70.9h-3.6l-0.5,3.2h3.5l-0.1,0.5h-3.5l-0.6,3.5h3.7l-0.1,0.5h-4.3l1.3-8.2h4.1L108,70.9z"/>
	<path d="M110.7,70.4h1.8c0.7,0,1.3,0.1,1.7,0.4c0.4,0.3,0.6,0.7,0.6,1.3c0,0.5-0.1,0.9-0.4,1.3s-0.7,0.7-1.3,0.8v0
		c0.5,0.1,0.9,0.3,1.2,0.6s0.4,0.7,0.4,1.1c0,0.4-0.1,0.7-0.2,1c-0.1,0.3-0.3,0.6-0.6,0.8c-0.3,0.2-0.6,0.4-1,0.5s-0.8,0.2-1.3,0.2
		h-2.2L110.7,70.4z M111.7,78.2c0.4,0,0.7-0.1,1-0.2c0.3-0.1,0.5-0.3,0.7-0.4c0.2-0.2,0.4-0.4,0.5-0.7c0.1-0.3,0.2-0.5,0.2-0.8
		c0-0.5-0.2-0.8-0.5-1.1c-0.4-0.2-0.9-0.4-1.6-0.4h-1.4l-0.6,3.6H111.7z M111.7,74.1c0.4,0,0.7,0,1-0.1c0.3-0.1,0.6-0.2,0.8-0.4
		c0.2-0.2,0.4-0.4,0.5-0.6c0.1-0.2,0.2-0.5,0.2-0.8c0-0.4-0.2-0.7-0.5-1c-0.3-0.2-0.8-0.3-1.3-0.3h-1.3l-0.5,3.3H111.7z"/>
	<path d="M123.6,70.4c0.6,0,1.2,0.1,1.6,0.3s0.9,0.5,1.2,0.8c0.3,0.3,0.6,0.7,0.7,1.2c0.2,0.4,0.2,0.9,0.2,1.4
		c0,0.7-0.1,1.3-0.3,1.8c-0.2,0.6-0.5,1-0.9,1.4c-0.4,0.4-0.9,0.7-1.5,1c-0.6,0.2-1.3,0.3-2,0.3h-2.5l1.3-8.2H123.6z M122.7,78.2
		c0.7,0,1.3-0.1,1.8-0.3s0.9-0.5,1.3-0.8c0.4-0.4,0.6-0.8,0.8-1.3c0.2-0.5,0.3-1.1,0.3-1.7c0-0.4-0.1-0.8-0.2-1.2
		c-0.1-0.4-0.3-0.7-0.6-1c-0.3-0.3-0.6-0.5-1-0.7c-0.4-0.2-0.9-0.3-1.4-0.3h-1.7l-1.2,7.3H122.7z"/>
	<path d="M130.2,70.4h0.5l-1.3,8.2h-0.5L130.2,70.4z"/>
	<path d="M132.6,78.6h-0.5l1.3-8.2h2.3c0.7,0,1.3,0.2,1.6,0.5c0.4,0.3,0.6,0.8,0.6,1.6c0,0.3-0.1,0.6-0.2,0.9
		c-0.1,0.3-0.3,0.5-0.5,0.8c-0.2,0.2-0.5,0.4-0.8,0.6c-0.3,0.1-0.7,0.2-1.1,0.3l2.3,3.7H137l-2.2-3.6h-1.6L132.6,78.6z M134.9,74.5
		c0.3,0,0.7,0,0.9-0.1c0.3-0.1,0.6-0.2,0.8-0.4c0.2-0.2,0.4-0.4,0.5-0.6s0.2-0.6,0.2-0.9c0-0.5-0.1-0.9-0.4-1.2s-0.7-0.4-1.3-0.4
		h-1.8l-0.6,3.6H134.9z"/>
	<path d="M144.8,70.9h-3.6l-0.5,3.2h3.5l-0.1,0.5h-3.5l-0.6,3.5h3.7l-0.1,0.5h-4.3l1.3-8.2h4.1L144.8,70.9z"/>
	<path d="M151,70.2c0.9,0,1.7,0.2,2.3,0.6c0.6,0.4,1,1,1.2,1.7H154c-0.2-0.6-0.5-1-1-1.4c-0.5-0.3-1.2-0.5-2-0.5
		c-0.6,0-1.2,0.1-1.7,0.3c-0.5,0.2-0.9,0.5-1.3,0.9c-0.3,0.4-0.6,0.9-0.8,1.4s-0.3,1.1-0.3,1.8c0,0.5,0.1,0.9,0.2,1.4
		c0.2,0.4,0.4,0.8,0.7,1.1c0.3,0.3,0.6,0.5,1,0.7c0.4,0.2,0.8,0.2,1.3,0.2c0.8,0,1.5-0.2,2-0.5c0.6-0.3,1-0.8,1.3-1.4h0.6
		c-0.4,0.8-0.9,1.4-1.5,1.8c-0.6,0.4-1.4,0.6-2.4,0.6c-0.6,0-1.1-0.1-1.6-0.3c-0.5-0.2-0.9-0.5-1.2-0.8c-0.3-0.3-0.6-0.8-0.7-1.2
		s-0.2-0.9-0.2-1.4c0-0.6,0.1-1.2,0.3-1.8c0.2-0.6,0.5-1.1,0.9-1.6s0.9-0.8,1.4-1.1C149.6,70.3,150.3,70.2,151,70.2z"/>
	<path d="M158.6,70.9h-2.3l0.1-0.5h5.1l-0.1,0.5h-2.3l-1.2,7.7h-0.5L158.6,70.9z"/>
	<path d="M163.4,70.4h0.5l-1.3,8.2h-0.5L163.4,70.4z"/>
	<path d="M169.4,78.9c-0.6,0-1.1-0.1-1.6-0.3s-0.9-0.5-1.2-0.9c-0.3-0.4-0.6-0.8-0.8-1.3c-0.2-0.5-0.3-1-0.3-1.5
		c0-0.6,0.1-1.2,0.3-1.7c0.2-0.6,0.5-1.1,0.9-1.5c0.4-0.5,0.9-0.8,1.4-1.1c0.6-0.3,1.2-0.4,2-0.4c0.6,0,1.1,0.1,1.6,0.3
		c0.5,0.2,0.9,0.5,1.2,0.9c0.3,0.4,0.6,0.8,0.8,1.3c0.2,0.5,0.3,1,0.3,1.5c0,0.6-0.1,1.2-0.3,1.7c-0.2,0.6-0.5,1.1-0.9,1.5
		c-0.4,0.5-0.9,0.8-1.4,1.1C170.8,78.7,170.1,78.9,169.4,78.9z M169.4,78.4c0.7,0,1.2-0.1,1.7-0.4s0.9-0.6,1.2-1
		c0.3-0.4,0.6-0.9,0.8-1.4c0.2-0.5,0.3-1,0.3-1.6c0-0.5-0.1-0.9-0.2-1.4c-0.2-0.4-0.4-0.8-0.7-1.1c-0.3-0.3-0.6-0.6-1-0.8
		c-0.4-0.2-0.9-0.3-1.4-0.3c-0.7,0-1.3,0.1-1.8,0.4s-0.9,0.6-1.3,1c-0.3,0.4-0.6,0.9-0.7,1.4c-0.2,0.5-0.2,1-0.2,1.6
		c0,0.5,0.1,0.9,0.2,1.4c0.1,0.4,0.4,0.8,0.7,1.1c0.3,0.3,0.6,0.6,1.1,0.7C168.4,78.3,168.9,78.4,169.4,78.4z"/>
	<path d="M175.4,78.6l1.3-8.2h0.4l2.4,4.5c0.2,0.4,0.5,0.9,0.7,1.4c0.3,0.5,0.5,1,0.8,1.4h0c0-0.1,0-0.3,0.1-0.4
		c0-0.2,0-0.3,0.1-0.5c0-0.2,0-0.3,0.1-0.5c0-0.2,0-0.3,0.1-0.4l0.9-5.5h0.5l-1.3,8.2h-0.5l-2.5-4.7c-0.1-0.2-0.2-0.5-0.4-0.7
		c-0.1-0.3-0.3-0.5-0.4-0.8c-0.1-0.2-0.2-0.5-0.3-0.7c-0.1-0.2-0.2-0.4-0.3-0.5h0c0,0.1,0,0.3-0.1,0.4c0,0.2,0,0.4-0.1,0.5
		c0,0.2-0.1,0.4-0.1,0.5c0,0.2-0.1,0.3-0.1,0.4l-0.8,5.4H175.4z"/>
	<path d="M184.1,77.7h0.8l-0.1,0.4c-0.1,0.5-0.2,0.9-0.3,1.2c-0.2,0.3-0.3,0.6-0.5,0.9h-0.4c0.2-0.2,0.3-0.5,0.4-0.8
		c0.1-0.3,0.2-0.6,0.3-0.9H184L184.1,77.7z"/>
	<path d="M190.9,70.4c0.6,0,1.2,0.1,1.6,0.3c0.5,0.2,0.9,0.5,1.2,0.8s0.6,0.7,0.7,1.2c0.2,0.4,0.2,0.9,0.2,1.4
		c0,0.7-0.1,1.3-0.3,1.8c-0.2,0.6-0.5,1-0.9,1.4c-0.4,0.4-0.9,0.7-1.5,1c-0.6,0.2-1.3,0.3-2,0.3h-2.5l1.3-8.2H190.9z M190,78.2
		c0.7,0,1.3-0.1,1.8-0.3s0.9-0.5,1.3-0.8s0.6-0.8,0.8-1.3c0.2-0.5,0.3-1.1,0.3-1.7c0-0.4-0.1-0.8-0.2-1.2c-0.1-0.4-0.3-0.7-0.6-1
		s-0.6-0.5-1-0.7s-0.9-0.3-1.4-0.3h-1.7l-1.2,7.3H190z"/>
	<path d="M201.5,70.9h-3.6l-0.5,3.2h3.5l-0.1,0.5h-3.5l-0.6,3.5h3.7l-0.1,0.5h-4.3l1.3-8.2h4.1L201.5,70.9z"/>
	<path d="M208,72.2L208,72.2c0-0.5-0.1-0.8-0.4-1.1c-0.3-0.3-0.7-0.4-1.3-0.4c-0.3,0-0.6,0-0.8,0.1c-0.2,0.1-0.4,0.2-0.5,0.4
		c-0.1,0.1-0.2,0.3-0.3,0.5c-0.1,0.2-0.1,0.4-0.1,0.5c0,0.4,0.1,0.7,0.4,0.9c0.2,0.3,0.6,0.5,1.2,0.8c0.7,0.3,1.2,0.7,1.5,1.1
		c0.3,0.4,0.5,0.9,0.5,1.4c0,0.3-0.1,0.7-0.2,1s-0.3,0.6-0.5,0.8c-0.2,0.2-0.5,0.4-0.8,0.5s-0.7,0.2-1.1,0.2c-0.8,0-1.4-0.2-1.8-0.6
		c-0.4-0.4-0.7-1-0.7-1.7h0.6c0,0.6,0.2,1,0.5,1.4c0.3,0.4,0.8,0.5,1.4,0.5c0.3,0,0.6-0.1,0.9-0.2c0.3-0.1,0.5-0.3,0.6-0.4
		c0.2-0.2,0.3-0.4,0.4-0.6c0.1-0.2,0.1-0.5,0.1-0.7c0-0.2,0-0.4-0.1-0.6c-0.1-0.2-0.2-0.4-0.3-0.5s-0.3-0.3-0.5-0.5
		c-0.2-0.2-0.5-0.3-0.8-0.5c-0.6-0.3-1.1-0.6-1.4-0.9c-0.3-0.3-0.5-0.8-0.5-1.3c0-0.2,0-0.5,0.1-0.7c0.1-0.2,0.2-0.5,0.4-0.6
		c0.2-0.2,0.4-0.3,0.7-0.5c0.3-0.1,0.6-0.2,1-0.2c0.4,0,0.7,0,0.9,0.1c0.3,0.1,0.5,0.2,0.7,0.4s0.3,0.4,0.4,0.6
		c0.1,0.2,0.2,0.5,0.2,0.8v0.1H208z"/>
	<path d="M211.5,70.4h0.5l-1.3,8.2h-0.5L211.5,70.4z"/>
	<path d="M221.7,74.5c-0.1,0.7-0.2,1.3-0.5,1.8s-0.5,1-0.9,1.4c-0.4,0.4-0.8,0.7-1.3,0.9s-1.1,0.3-1.7,0.3c-0.6,0-1.1-0.1-1.6-0.3
		c-0.5-0.2-0.9-0.5-1.2-0.8c-0.3-0.3-0.6-0.8-0.8-1.2c-0.2-0.5-0.3-1-0.3-1.5c0-0.7,0.1-1.3,0.3-1.9c0.2-0.6,0.5-1.1,0.9-1.6
		s0.9-0.8,1.5-1.1c0.6-0.3,1.2-0.4,2-0.4c0.9,0,1.6,0.2,2.2,0.6s1,1,1.2,1.7H221c-0.2-0.6-0.5-1-1-1.4c-0.5-0.3-1.1-0.5-1.9-0.5
		c-0.6,0-1.2,0.1-1.7,0.3c-0.5,0.2-0.9,0.5-1.3,0.9c-0.3,0.4-0.6,0.9-0.8,1.4s-0.3,1.1-0.3,1.7c0,0.5,0.1,0.9,0.2,1.3
		s0.4,0.8,0.7,1.1c0.3,0.3,0.6,0.5,1.1,0.7s0.9,0.3,1.4,0.3c0.5,0,0.9-0.1,1.3-0.2c0.4-0.2,0.8-0.4,1.1-0.7c0.3-0.3,0.6-0.7,0.8-1.1
		s0.4-0.9,0.5-1.4h-3.7l0.1-0.5H221.7z"/>
	<path d="M223.2,78.6l1.3-8.2h0.4l2.4,4.5c0.2,0.4,0.5,0.9,0.7,1.4c0.3,0.5,0.5,1,0.8,1.4h0c0-0.1,0-0.3,0.1-0.4
		c0-0.2,0-0.3,0.1-0.5c0-0.2,0-0.3,0.1-0.5c0-0.2,0-0.3,0.1-0.4l0.9-5.5h0.5l-1.3,8.2h-0.5l-2.5-4.7c-0.1-0.2-0.2-0.5-0.4-0.7
		c-0.1-0.3-0.3-0.5-0.4-0.8c-0.1-0.2-0.2-0.5-0.3-0.7c-0.1-0.2-0.2-0.4-0.3-0.5h0c0,0.1,0,0.3-0.1,0.4c0,0.2,0,0.4-0.1,0.5
		c0,0.2-0.1,0.4-0.1,0.5c0,0.2-0.1,0.3-0.1,0.4l-0.8,5.4H223.2z"/>
</g>
</svg>
