<?xml version="1.0" encoding="utf-8"?>
<!-- Generator: Adobe Illustrator 19.0.0, SVG Export Plug-In . SVG Version: 6.00 Build 0)  -->
<svg version="1.1" id="レイヤー_1" xmlns="http://www.w3.org/2000/svg" xmlns:xlink="http://www.w3.org/1999/xlink" x="0px"
	 y="0px" width="200px" height="24px" viewBox="-274 64 200 24" style="enable-background:new -274 64 200 24;"
	 xml:space="preserve">
<g id="XMLID_102_">
	<path id="XMLID_103_" d="M-271.3,80l-1.3,3.4h-0.9l4.8-12.5h0.9l4.8,12.4h-0.9l-1.4-3.3H-271.3z M-268.3,72.1l-2.7,7.1h5.5
		L-268.3,72.1z"/>
	<path id="XMLID_106_" d="M-252.2,70.9v12.4h-0.9l-6.9-11.1v11.1h-0.8V70.9h0.9L-253,82V70.9H-252.2z"/>
	<path id="XMLID_108_" d="M-248.5,83.3V70.9h4.6c3.5,0,5.5,2.7,5.5,6.2s-2,6.2-5.5,6.2H-248.5z M-247.7,82.5h3.8
		c3,0,4.6-2.3,4.6-5.4s-1.6-5.4-4.6-5.4h-3.8V82.5z"/>
	<path id="XMLID_111_" d="M-223.9,81.2l5-10.3h0.8l1.6,12.4h-0.8l-1.4-11l-4.8,9.8h-0.8l-4.8-9.8l-1.4,11h-0.8l1.5-12.4h0.8
		L-223.9,81.2z"/>
	<path id="XMLID_113_" d="M-208.2,70.8c3.5,0,6.2,2.8,6.2,6.4c0,3.5-2.7,6.4-6.2,6.4s-6.2-2.8-6.2-6.4
		C-214.4,73.6-211.7,70.8-208.2,70.8z M-208.2,82.7c3.1,0,5.4-2.5,5.4-5.5c0-3.1-2.4-5.6-5.4-5.6s-5.4,2.5-5.4,5.6
		C-213.6,80.2-211.2,82.7-208.2,82.7z"/>
	<path id="XMLID_116_" d="M-198.2,78.3v5h-0.8V70.9h4.6c2.5,0,3.4,1.8,3.4,3.7s-0.9,3.7-3.5,3.7h-0.2l3.5,5h-1l-3.5-5
		C-195.7,78.3-198.2,78.3-198.2,78.3z M-198.2,71.7v5.8h3.7c2,0,2.7-1.4,2.7-2.9s-0.7-2.9-2.6-2.9
		C-194.4,71.7-198.2,71.7-198.2,71.7z"/>
	<path id="XMLID_119_" d="M-188.2,70.9h6.9v0.8h-6.1v5.1h5.3v0.8h-5.3v4.9h6.3v0.8h-7.1C-188.2,83.3-188.2,70.9-188.2,70.9z"/>
	<path id="XMLID_121_" d="M-172.6,70.9v12.4h-0.8V70.9H-172.6z"/>
	<path id="XMLID_123_" d="M-160.3,70.9v12.4h-0.9l-6.9-11.1v11.1h-0.8V70.9h0.9l6.9,11.1V70.9H-160.3z"/>
	<path id="XMLID_125_" d="M-156.6,70.9h6.8v0.8h-6v5.1h4.7v0.8h-4.7v5.7h-0.8V70.9z"/>
	<path id="XMLID_127_" d="M-141.9,70.8c3.5,0,6.2,2.8,6.2,6.4c0,3.5-2.7,6.4-6.2,6.4s-6.2-2.8-6.2-6.4
		C-148.2,73.6-145.4,70.8-141.9,70.8z M-141.9,82.7c3.1,0,5.4-2.5,5.4-5.5c0-3.1-2.4-5.6-5.4-5.6s-5.4,2.5-5.4,5.6
		C-147.4,80.2-145,82.7-141.9,82.7z"/>
</g>
</svg>
